<?xml version="1.0" encoding="iso-8859-1"?>
<!-- Uploaded to: SVG Repo, www.svgrepo.com, Generator: SVG Repo Mixer Tools -->
<svg fill="#cccccc" height="800px" width="800px" version="1.1" id="Layer_1" xmlns="http://www.w3.org/2000/svg" xmlns:xlink="http://www.w3.org/1999/xlink" 
	 viewBox="0 0 504.664 504.664" xml:space="preserve">
<g>
	<g>
		<path d="M491.93,467.648H356.714v-365.46C356.714,45.752,330.05,0,298.714,0c-11.196,0-21.78,7.772-30.772,20.296
			c-13.436,17.78-23.804,48.064-26.5,80.5c-0.18,2.008-0.32,4.016-0.436,6.024c-0.04,0.776-0.064,1.552-0.092,2.328
			c-0.116,2.672-0.196,5.344-0.196,8v350.5h-8v-350.5c0-46.46,16.616-97.392,41.688-114.864C267.514,0.82,259.306,0,251.986,0
			C195.55,0,148.722,45.752,148.722,102.188v229.46v27v43v24v42h-136c-2.212,0-4,1.788-4,4c0,2.212,1.788,4,4,4h228v29.016
			l113.14-29.188c0.288,0.064,0.564,0.172,0.868,0.172h137.212c2.212,0,4-1.788,4-4C495.942,469.436,494.142,467.648,491.93,467.648
			z M264.714,268.336c0,2.208-1.788,4-4,4c-2.212,0-4-1.792-4-4v-33.988c0-2.208,1.788-4,4-4c2.212,0,4,1.792,4,4V268.336z"/>
	</g>
</g>
</svg>